<?xml version="1.0" encoding="iso-8859-1"?>
<!-- Uploaded to: SVG Repo, www.svgrepo.com, Generator: SVG Repo Mixer Tools -->
<svg height="800px" width="800px" version="1.1" id="Layer_1" xmlns="http://www.w3.org/2000/svg" xmlns:xlink="http://www.w3.org/1999/xlink" 
	 viewBox="0 0 512 512" xml:space="preserve">
<g>
	<path style="fill:#B5E06C;" d="M240.577,54.808c17.141,17.141,13.568,48.509,13.568,48.509s-31.368,3.586-48.509-13.568
		c-17.141-17.141-13.568-48.509-13.568-48.509S223.436,37.668,240.577,54.808z"/>
	<path style="fill:#B5E06C;" d="M346.411,13.394c0,0,5.191,45.441-19.639,70.271S256.5,103.317,256.5,103.317
		s-5.191-45.441,19.639-70.271C300.983,8.215,346.411,13.394,346.411,13.394z"/>
</g>
<path style="fill:#FFFFFF;" d="M397.95,360.673l-61.377-111.129C368.588,287.683,397.95,324.281,397.95,360.673z"/>
<path style="fill:#DF4D60;" d="M397.95,360.673c42.58-51.707,95.05-9.153,95.05,43.344c0,52.483-42.554,95.037-95.05,95.037
	c-52.483,0-95.037-42.554-95.037-95.037C302.912,351.52,355.37,308.966,397.95,360.673z"/>
<g>
	<path style="fill:#FFFFFF;" d="M256.047,103.771l80.525,145.773C298.213,203.857,256.047,155.995,256.047,103.771z"/>
	<path style="fill:#FFFFFF;" d="M256.047,103.771c0,52.225-42.165,100.086-80.525,145.773L256.047,103.771z"/>
	<path style="fill:#FFFFFF;" d="M175.523,249.544l-61.377,111.129C114.145,324.281,143.507,287.683,175.523,249.544z"/>
</g>
<path style="fill:#DF4D60;" d="M19.095,404.016c0-52.496,52.471-95.05,95.05-43.344c42.58-51.707,95.037-9.153,95.037,43.344
	c0,52.483-42.554,95.037-95.037,95.037C61.649,499.054,19.095,456.5,19.095,404.016z"/>
<path d="M114.144,512C54.594,512,6.148,463.558,6.148,404.016c0-34.956,19.647-66.419,47.776-76.51
	c20.509-7.357,41.89-2.086,60.22,14.432c18.328-16.519,39.703-21.796,60.214-14.432c28.127,10.09,47.77,41.552,47.77,76.51
	C222.127,463.558,173.686,512,114.144,512z M72.336,350.152c-3.11,0-6.337,0.531-9.668,1.726
	c-17.46,6.265-30.628,28.678-30.628,52.138c0,45.266,36.832,82.091,82.104,82.091c45.266,0,82.091-36.825,82.091-82.091
	c0-23.461-13.165-45.877-30.621-52.138c-17.511-6.288-32.223,5.789-41.475,17.024c-2.458,2.988-6.125,4.718-9.994,4.718
	c-3.87,0-7.535-1.731-9.994-4.718C96.656,359.803,85.584,350.152,72.336,350.152z"/>
<path d="M114.144,373.619c-7.149,0-12.946-5.797-12.946-12.946c0-39.578,27.916-75.978,64.408-119.454l4.781-5.687
	c35.748-42.486,72.713-86.419,72.713-131.763c0-7.149,5.797-12.946,12.946-12.946s12.946,5.797,12.946,12.946
	c0,54.788-40.055,102.395-78.793,148.432l-4.764,5.667c-33.058,39.381-58.345,71.958-58.345,102.804
	C127.09,367.823,121.294,373.619,114.144,373.619z"/>
<path d="M488.083,389.58c-5.242,0-10.173-3.205-12.123-8.401c-0.163-0.434-0.329-0.866-0.5-1.293
	c-2.641-6.645,0.605-14.172,7.249-16.813c6.644-2.638,14.172,0.605,16.813,7.249c0.232,0.584,0.458,1.17,0.678,1.761
	c2.512,6.694-0.878,14.158-7.572,16.669C491.132,389.313,489.594,389.58,488.083,389.58z"/>
<path d="M397.95,512c-59.542,0-107.983-48.442-107.983-107.983c0-34.958,19.644-66.42,47.77-76.51
	c20.507-7.359,41.879-2.086,60.205,14.425c13.947-12.591,27.345-16.515,36.883-17.412c14.735-1.392,29.661,3.515,42.019,13.803
	c5.494,4.575,6.24,12.738,1.666,18.233c-4.574,5.492-12.738,6.24-18.233,1.666c-4.969-4.136-12.998-8.863-23.026-7.924
	c-9.917,0.933-20.051,7.366-29.307,18.606c-2.458,2.988-6.125,4.718-9.994,4.718s-7.535-1.73-9.994-4.718
	c-9.251-11.236-23.966-23.311-41.475-17.024c-17.457,6.262-30.621,28.677-30.621,52.138c0,45.266,36.825,82.091,82.091,82.091
	c44.074,0,80.103-34.453,82.024-78.437c0.312-7.145,6.377-12.686,13.499-12.369c7.144,0.312,12.681,6.355,12.369,13.499
	C503.313,466.669,455.921,512,397.95,512z"/>
<path d="M397.95,373.619c-7.149,0-12.946-5.797-12.946-12.946c0-30.845-25.288-63.423-58.347-102.805l-4.763-5.665
	c-38.737-46.039-78.793-93.644-78.793-148.432c0-7.149,5.797-12.946,12.946-12.946c7.149,0,12.946,5.797,12.946,12.946
	c0,45.344,36.965,89.276,72.713,131.763l4.78,5.687c36.494,43.474,64.409,79.875,64.409,119.454
	C410.896,367.823,405.098,373.619,397.95,373.619z"/>
<path d="M266.529,116.713c-6.573,0-10.904-0.465-11.495-0.532c-5.988-0.682-10.713-5.406-11.398-11.394
	c-0.241-2.109-5.568-51.98,23.347-80.895c0.001,0,0.003-0.001,0.003-0.003c28.927-28.91,78.782-23.597,80.89-23.357
	c5.988,0.682,10.712,5.406,11.396,11.394c0.241,2.109,5.568,51.979-23.347,80.894C315.109,113.637,283.426,116.713,266.529,116.713z
	 M285.293,42.2c-13.386,13.386-16.012,35.37-16.269,48.591c13.213-0.26,35.203-2.89,48.593-16.281
	c13.296-13.294,15.948-35.347,16.237-48.588C320.642,26.186,298.68,28.823,285.293,42.2L285.293,42.2z"/>
<path d="M247.355,116.564c-12.282,0-35.485-2.258-50.878-17.664c-21.307-21.307-17.447-57.589-17.273-59.125
	c0.681-5.989,5.409-10.715,11.398-11.398c1.538-0.179,37.817-4.033,59.129,17.277l0,0c21.311,21.311,17.45,57.593,17.277,59.129
	c-0.681,5.988-5.405,10.712-11.393,11.398C255.188,116.229,252.078,116.564,247.355,116.564z M204.915,54.091
	c0.709,8.819,3.185,19.817,9.873,26.505c6.687,6.693,17.68,9.168,26.507,9.877c-0.708-8.82-3.183-19.819-9.874-26.508l0,0
	C224.736,57.277,213.743,54.801,204.915,54.091z"/>
</svg>