<?xml version="1.0" encoding="iso-8859-1"?>
<!-- Uploaded to: SVG Repo, www.svgrepo.com, Generator: SVG Repo Mixer Tools -->
<svg height="800px" width="800px" version="1.1" id="Layer_1" xmlns="http://www.w3.org/2000/svg" xmlns:xlink="http://www.w3.org/1999/xlink" 
	 viewBox="0 0 512 512" xml:space="preserve">
<path style="fill:#8FB84A;" d="M256.006,377.087c-64.905,0-117.518-52.6-117.518-117.505S256.006,12.953,256.006,12.953
	s117.505,181.724,117.505,246.629S320.898,377.087,256.006,377.087z"/>
<path d="M256.006,390.039c-71.941,0-130.469-58.523-130.469-130.458c0-29.12,20.307-80.895,60.356-153.885
	c29.266-53.337,58.942-99.32,59.237-99.778C247.515,2.229,251.611,0,256.006,0l0,0c4.396,0,8.49,2.229,10.876,5.919
	c0.142,0.22,14.486,22.432,32.864,53.552c3.638,6.159,1.593,14.101-4.566,17.74c-6.158,3.64-14.101,1.593-17.738-4.566
	c-8.328-14.101-15.805-26.33-21.464-35.446C219.1,96.439,151.441,214.45,151.441,259.581c0,57.65,46.908,104.553,104.564,104.553
	c57.65,0,104.553-46.902,104.553-104.553c0-15.539-8.428-49.932-48.578-125.54c-3.355-6.317-0.952-14.16,5.365-17.514
	c6.321-3.353,14.16-0.953,17.514,5.365c34.724,65.388,51.604,110.427,51.604,137.689
	C386.464,331.516,327.94,390.039,256.006,390.039z"/>
<path d="M307.519,111.823c-4.529,0-8.928-2.381-11.305-6.611c-1.003-1.786-2.004-3.559-2.999-5.316
	c-3.526-6.225-1.338-14.129,4.886-17.654c6.224-3.526,14.127-1.338,17.654,4.886c1.01,1.785,2.026,3.584,3.045,5.397
	c3.504,6.237,1.287,14.134-4.949,17.636C311.845,111.288,309.668,111.823,307.519,111.823z"/>
<path d="M256.006,512c-7.152,0-12.953-5.799-12.953-12.952V152.762c0-7.154,5.8-12.953,12.953-12.953
	c7.152,0,12.953,5.799,12.953,12.953v346.286C268.958,506.201,263.158,512,256.006,512z"/>
<path d="M256.006,268.234c-3.315,0-6.628-1.264-9.157-3.792l-42.264-42.251c-5.058-5.058-5.059-13.258-0.003-18.317
	c5.058-5.059,13.257-5.061,18.319-0.003l42.264,42.251c5.058,5.058,5.059,13.258,0.003,18.317
	C262.636,266.968,259.32,268.234,256.006,268.234z"/>
<path d="M256.006,268.234c-3.316,0-6.629-1.264-9.159-3.794c-5.058-5.058-5.058-13.259,0-18.317l42.251-42.251
	c5.061-5.058,13.259-5.058,18.319,0s5.058,13.259,0,18.317l-42.251,42.251C262.635,266.968,259.319,268.234,256.006,268.234z"/>
<path d="M256.006,334.162c-3.315,0-6.628-1.264-9.157-3.793l-42.264-42.251c-5.058-5.058-5.059-13.258-0.003-18.317
	c5.058-5.058,13.257-5.062,18.319-0.003l42.264,42.251c5.058,5.058,5.059,13.258,0.003,18.317
	C262.636,332.897,259.32,334.162,256.006,334.162z"/>
<path d="M256.006,334.162c-3.316,0-6.629-1.264-9.159-3.794c-5.058-5.058-5.058-13.259,0-18.319l42.251-42.251
	c5.059-5.058,13.258-5.058,18.319,0c5.058,5.058,5.058,13.259,0,18.319l-42.251,42.251
	C262.635,332.898,259.32,334.162,256.006,334.162z"/>
</svg>